<mxfile host="app.diagrams.net" modified="2024-03-31T02:07:02.567Z" agent="Mozilla/5.0 (Macintosh; Intel Mac OS X 10_15_7) AppleWebKit/605.1.15 (KHTML, like Gecko) Version/17.3.1 Safari/605.1.15" etag="DqYTzwrx2PGNVHlgSwMc" version="24.2.1" type="device">
  <diagram name="Page-1" id="sHZhHYr5Y8spW0S-VXkb">
    <mxGraphModel dx="1254" dy="819" grid="1" gridSize="10" guides="1" tooltips="1" connect="1" arrows="1" fold="1" page="1" pageScale="1" pageWidth="850" pageHeight="1100" math="0" shadow="0">
      <root>
        <mxCell id="0" />
        <mxCell id="1" parent="0" />
        <object label="&lt;b style=&quot;font-size: 11px;&quot;&gt;&lt;font style=&quot;font-size: 11px;&quot;&gt;Patient Table&lt;/font&gt;&lt;/b&gt;&lt;div style=&quot;font-size: 11px;&quot;&gt;&lt;font style=&quot;font-size: 11px;&quot;&gt;&lt;b style=&quot;font-size: 11px;&quot;&gt;&lt;br style=&quot;font-size: 11px;&quot;&gt;&lt;/b&gt;&lt;/font&gt;&lt;div style=&quot;text-align: left; font-size: 11px;&quot;&gt;- ID: int&lt;/div&gt;&lt;div style=&quot;text-align: left; font-size: 11px;&quot;&gt;- First Name: str&lt;/div&gt;&lt;div style=&quot;text-align: left; font-size: 11px;&quot;&gt;- Last Name: str&lt;/div&gt;&lt;div style=&quot;text-align: left; font-size: 11px;&quot;&gt;- DOB: datetime&lt;/div&gt;&lt;div style=&quot;text-align: left; font-size: 11px;&quot;&gt;- Address: Address ID -fk&lt;/div&gt;&lt;div style=&quot;text-align: left; font-size: 11px;&quot;&gt;- Primary Dr: Doctor ID - fk&lt;/div&gt;&lt;/div&gt;&lt;div style=&quot;text-align: left; font-size: 11px;&quot;&gt;- Insurance Info: Json Object&lt;/div&gt;" placeholders="1" ID="int" first_name="str" last_name="str" dob="datetime" address="str" primary_doctor="doctor_id" allergies="list[allergy_id]" insurance="json object" id="VEyq4hM_FgDwYUCWKca6-1">
          <mxCell style="rounded=1;whiteSpace=wrap;html=1;direction=north;glass=0;movableLabel=0;enumerate=0;fontSize=11;" parent="1" vertex="1">
            <mxGeometry x="42" y="20" width="180" height="170" as="geometry" />
          </mxCell>
        </object>
        <object label="&lt;div style=&quot;font-size: 11px;&quot;&gt;&lt;b style=&quot;font-size: 11px;&quot;&gt;&lt;font style=&quot;font-size: 11px;&quot;&gt;Rx Table&lt;/font&gt;&lt;/b&gt;&lt;/div&gt;&lt;div style=&quot;font-size: 11px;&quot;&gt;&lt;b style=&quot;font-size: 11px;&quot;&gt;&lt;font style=&quot;font-size: 11px;&quot;&gt;&lt;br style=&quot;font-size: 11px;&quot;&gt;&lt;/font&gt;&lt;/b&gt;&lt;div style=&quot;text-align: left; font-size: 11px;&quot;&gt;- ID: int&lt;/div&gt;&lt;div style=&quot;text-align: left; font-size: 11px;&quot;&gt;- Name: str&lt;/div&gt;&lt;/div&gt;" Doctor="Doctor" First_Name="Name" id="xYF8wX5PlVhW7Y3KvxT_-2">
          <mxCell style="rounded=1;whiteSpace=wrap;html=1;direction=north;fontSize=11;" parent="1" vertex="1">
            <mxGeometry x="42" y="200" width="178" height="170" as="geometry" />
          </mxCell>
        </object>
        <object label="&lt;div style=&quot;font-size: 11px;&quot;&gt;&lt;b style=&quot;font-size: 11px;&quot;&gt;&lt;font style=&quot;font-size: 11px;&quot;&gt;Allergies Table&lt;/font&gt;&lt;/b&gt;&lt;/div&gt;&lt;div style=&quot;font-size: 11px;&quot;&gt;&lt;b style=&quot;font-size: 11px;&quot;&gt;&lt;font style=&quot;font-size: 11px;&quot;&gt;&lt;br style=&quot;font-size: 11px;&quot;&gt;&lt;/font&gt;&lt;/b&gt;&lt;/div&gt;&lt;div style=&quot;font-size: 11px;&quot;&gt;&lt;div style=&quot;text-align: left; font-size: 11px;&quot;&gt;- ID: int&lt;/div&gt;&lt;div style=&quot;text-align: left; font-size: 11px;&quot;&gt;- Allergy Name: str&lt;/div&gt;&lt;/div&gt;&lt;div style=&quot;text-align: left; font-size: 11px;&quot;&gt;- Conflicting Meds: list[Rx_ID]&lt;/div&gt;" id="xYF8wX5PlVhW7Y3KvxT_-3">
          <mxCell style="rounded=1;whiteSpace=wrap;html=1;direction=north;fontSize=11;" parent="1" vertex="1">
            <mxGeometry x="237" y="200" width="180" height="170" as="geometry" />
          </mxCell>
        </object>
        <object label="&lt;div style=&quot;font-size: 11px;&quot;&gt;&lt;font style=&quot;font-size: 11px;&quot;&gt;&lt;b style=&quot;font-size: 11px;&quot;&gt;Doctors Table&lt;/b&gt;&lt;/font&gt;&lt;/div&gt;&lt;div style=&quot;font-size: 11px;&quot;&gt;&lt;font style=&quot;font-size: 11px;&quot;&gt;&lt;b style=&quot;font-size: 11px;&quot;&gt;&lt;br style=&quot;font-size: 11px;&quot;&gt;&lt;/b&gt;&lt;/font&gt;&lt;/div&gt;&lt;div style=&quot;font-size: 11px;&quot;&gt;&lt;div style=&quot;text-align: left; font-size: 11px;&quot;&gt;- ID: int&lt;/div&gt;&lt;div style=&quot;text-align: left; font-size: 11px;&quot;&gt;- First Name: str&lt;/div&gt;&lt;div style=&quot;text-align: left; font-size: 11px;&quot;&gt;- Last Name: str&lt;/div&gt;&lt;div style=&quot;text-align: left; font-size: 11px;&quot;&gt;- Dr Type: Enum&lt;/div&gt;&lt;/div&gt;&lt;div style=&quot;text-align: left; font-size: 11px;&quot;&gt;- Address: Address ID -fk&lt;/div&gt;&lt;div style=&quot;text-align: left; font-size: 11px;&quot;&gt;- DEA: str&lt;/div&gt;&lt;div style=&quot;text-align: left; font-size: 11px;&quot;&gt;- Patients: list[Patient ID]&lt;/div&gt;" Doctor="Doctor" First_Name="Name" id="xYF8wX5PlVhW7Y3KvxT_-4">
          <mxCell style="rounded=1;whiteSpace=wrap;html=1;direction=north;fontSize=11;" parent="1" vertex="1">
            <mxGeometry x="237" y="20" width="180" height="170" as="geometry" />
          </mxCell>
        </object>
        <object label="&lt;div style=&quot;font-size: 11px;&quot;&gt;&lt;b style=&quot;font-size: 11px;&quot;&gt;&lt;font style=&quot;font-size: 11px;&quot;&gt;Prescribed Rx Table&lt;/font&gt;&lt;/b&gt;&lt;/div&gt;&lt;div style=&quot;font-size: 11px;&quot;&gt;&lt;b style=&quot;font-size: 11px;&quot;&gt;&lt;font style=&quot;font-size: 11px;&quot;&gt;&lt;br style=&quot;font-size: 11px;&quot;&gt;&lt;/font&gt;&lt;/b&gt;&lt;div style=&quot;text-align: left; font-size: 11px;&quot;&gt;- ID: int&lt;/div&gt;&lt;div style=&quot;text-align: left; font-size: 11px;&quot;&gt;- RX_ID: int - fk&lt;/div&gt;&lt;div style=&quot;text-align: left; font-size: 11px;&quot;&gt;- Dosage: string&lt;/div&gt;&lt;div style=&quot;text-align: left; font-size: 11px;&quot;&gt;- SIG Code ID: Sig Code ID -fk&lt;/div&gt;&lt;/div&gt;&lt;div style=&quot;text-align: left; font-size: 11px;&quot;&gt;- Patient ID: Patient ID -fk&lt;/div&gt;&lt;div style=&quot;text-align: left; font-size: 11px;&quot;&gt;- Date Prescribed: datetime&lt;/div&gt;&lt;div style=&quot;text-align: left; font-size: 11px;&quot;&gt;- refills: int&lt;/div&gt;&lt;div style=&quot;text-align: left; font-size: 11px;&quot;&gt;- count: int&lt;/div&gt;" Doctor="Doctor" First_Name="Name" id="xYF8wX5PlVhW7Y3KvxT_-8">
          <mxCell style="rounded=1;whiteSpace=wrap;html=1;direction=north;fontSize=11;" parent="1" vertex="1">
            <mxGeometry x="430.5" y="200" width="183" height="170" as="geometry" />
          </mxCell>
        </object>
        <object label="&lt;div style=&quot;font-size: 11px;&quot;&gt;&lt;font style=&quot;font-size: 11px;&quot;&gt;&lt;b style=&quot;font-size: 11px;&quot;&gt;Sig Code Table&lt;/b&gt;&lt;/font&gt;&lt;/div&gt;&lt;div style=&quot;font-size: 11px;&quot;&gt;&lt;font style=&quot;font-size: 11px;&quot;&gt;&lt;b style=&quot;font-size: 11px;&quot;&gt;&lt;br style=&quot;font-size: 11px;&quot;&gt;&lt;/b&gt;&lt;/font&gt;&lt;/div&gt;&lt;div style=&quot;font-size: 11px;&quot;&gt;&lt;div style=&quot;text-align: left; font-size: 11px;&quot;&gt;- ID: int&lt;/div&gt;&lt;div style=&quot;text-align: left; font-size: 11px;&quot;&gt;- Code: str&lt;/div&gt;&lt;/div&gt;" Doctor="Doctor" First_Name="Name" id="xYF8wX5PlVhW7Y3KvxT_-9">
          <mxCell style="rounded=1;whiteSpace=wrap;html=1;direction=north;fontSize=11;" parent="1" vertex="1">
            <mxGeometry x="627" y="200" width="182" height="170" as="geometry" />
          </mxCell>
        </object>
        <object label="&lt;div style=&quot;font-size: 11px;&quot;&gt;&lt;font style=&quot;font-size: 11px;&quot;&gt;&lt;b style=&quot;font-size: 11px;&quot;&gt;Patient Allergies Junction&lt;/b&gt;&lt;/font&gt;&lt;/div&gt;&lt;div style=&quot;font-size: 11px;&quot;&gt;&lt;font style=&quot;font-size: 11px;&quot;&gt;&lt;b style=&quot;font-size: 11px;&quot;&gt;&lt;br style=&quot;font-size: 11px;&quot;&gt;&lt;/b&gt;&lt;/font&gt;&lt;/div&gt;&lt;div style=&quot;font-size: 11px;&quot;&gt;&lt;div style=&quot;text-align: left; font-size: 11px;&quot;&gt;- ID: int&lt;/div&gt;&lt;div style=&quot;text-align: left; font-size: 11px;&quot;&gt;- Patient ID: int&lt;/div&gt;&lt;div style=&quot;text-align: left; font-size: 11px;&quot;&gt;- Allergy_ID: int&lt;br style=&quot;font-size: 11px;&quot;&gt;&lt;/div&gt;&lt;/div&gt;" id="xYF8wX5PlVhW7Y3KvxT_-11">
          <mxCell style="rounded=1;whiteSpace=wrap;html=1;direction=north;fontSize=11;" parent="1" vertex="1">
            <mxGeometry x="628" y="20" width="180" height="170" as="geometry" />
          </mxCell>
        </object>
        <object label="&lt;div style=&quot;font-size: 11px;&quot;&gt;&lt;font style=&quot;font-size: 11px;&quot;&gt;&lt;b style=&quot;font-size: 11px;&quot;&gt;Address Table&lt;/b&gt;&lt;/font&gt;&lt;/div&gt;&lt;div style=&quot;font-size: 11px;&quot;&gt;&lt;font style=&quot;font-size: 11px;&quot;&gt;&lt;b style=&quot;font-size: 11px;&quot;&gt;&lt;br style=&quot;font-size: 11px;&quot;&gt;&lt;/b&gt;&lt;/font&gt;&lt;/div&gt;&lt;div style=&quot;font-size: 11px;&quot;&gt;&lt;div style=&quot;text-align: left; font-size: 11px;&quot;&gt;- ID: int&lt;/div&gt;&lt;div style=&quot;text-align: left; font-size: 11px;&quot;&gt;- number: int&lt;/div&gt;&lt;div style=&quot;text-align: left; font-size: 11px;&quot;&gt;- street_name: str&lt;/div&gt;&lt;div style=&quot;text-align: left; font-size: 11px;&quot;&gt;- state: str&lt;/div&gt;&lt;div style=&quot;text-align: left; font-size: 11px;&quot;&gt;- zipcode: str&lt;/div&gt;&lt;div style=&quot;text-align: left; font-size: 11px;&quot;&gt;- Patient ID: int - fk&lt;/div&gt;&lt;/div&gt;" id="ZkO8BwEUdLON7s4Dy_lB-1">
          <mxCell style="rounded=1;whiteSpace=wrap;html=1;direction=north;fontSize=11;" parent="1" vertex="1">
            <mxGeometry x="432" y="20" width="180" height="170" as="geometry" />
          </mxCell>
        </object>
      </root>
    </mxGraphModel>
  </diagram>
</mxfile>
